<?xml version="1.0" encoding="utf-8"?><svg width="48" height="24" viewBox="0 0 48 24" xmlns="http://www.w3.org/2000/svg" xmlns:xlink="http://www.w3.org/1999/xlink"><svg width="24" height="24" viewBox="0 0 24 24" id="images--sprites--iconmonstr-synchronization-10"><path d="M12 1c6.074 0 11 4.925 11 11a10.96 10.96 0 0 1-.425 3h-2.1c.334-.94.525-1.947.525-3 0-4.962-4.037-9-9-9a8.89 8.89 0 0 0-4.654 1.314L9.203 7H2.21l2.15-7 1.85 2.673A10.9 10.9 0 0 1 12 1zm4.646 18.692A8.903 8.903 0 0 1 12 21c-4.963 0-9-4.038-9-9 0-1.053.19-2.06.525-3h-2.1A10.96 10.96 0 0 0 1 12c0 6.075 4.925 11 11 11 2.127 0 4.1-.62 5.78-1.667L19.633 24l2.152-6.99H14.79l1.856 2.682zM6 10v4h12v-4H6zm11 3h-4v-2h4v2z"/></svg><svg width="24" height="24" viewBox="0 0 24 24" id="images--sprites--menu" x="24"><path d="M24 6H0V2h24v4zm0 4H0v4h24v-4zm0 8H0v4h24v-4z"/></svg></svg>