<?xml version="1.0" encoding="utf-8"?><svg width="48" height="48" viewBox="0 0 48 48" xmlns="http://www.w3.org/2000/svg" xmlns:xlink="http://www.w3.org/1999/xlink"><svg width="24" height="24" viewBox="0 0 24 24" id="images--sprites--iconmonstr-synchronization-1"><path d="M20.944 12.98C20.454 17.487 16.638 21 12 21a8.974 8.974 0 0 1-6.763-3.075l1.245-1.633A6.985 6.985 0 0 0 12 19c3.526 0 6.444-2.624 6.923-6.02H16l4-5.25 4 5.25h-3.056zM5.08 11c.487-3.387 3.4-6 6.92-6a6.984 6.984 0 0 1 5.51 2.698l1.244-1.632A8.97 8.97 0 0 0 12 3c-4.632 0-8.443 3.5-8.94 8H0l4 5.25L8 11H5.08z"/></svg><svg width="24" height="24" viewBox="0 0 24 24" id="images--sprites--iconmonstr-synchronization-10" x="24"><path d="M12 1c6.074 0 11 4.925 11 11a10.96 10.96 0 0 1-.425 3h-2.1c.334-.94.525-1.947.525-3 0-4.962-4.037-9-9-9a8.89 8.89 0 0 0-4.654 1.314L9.203 7H2.21l2.15-7 1.85 2.673A10.9 10.9 0 0 1 12 1zm4.646 18.692A8.903 8.903 0 0 1 12 21c-4.963 0-9-4.038-9-9 0-1.053.19-2.06.525-3h-2.1A10.96 10.96 0 0 0 1 12c0 6.075 4.925 11 11 11 2.127 0 4.1-.62 5.78-1.667L19.633 24l2.152-6.99H14.79l1.856 2.682zM6 10v4h12v-4H6zm11 3h-4v-2h4v2z"/></svg><svg width="24" height="24" viewBox="0 0 24 24" id="images--sprites--menu" y="24"><path d="M24 6H0V2h24v4zm0 4H0v4h24v-4zm0 8H0v4h24v-4z"/></svg></svg>