<?xml version="1.0" encoding="UTF-8"?>
<svg width="11px" height="20px" viewBox="0 0 11 20" version="1.1" xmlns="http://www.w3.org/2000/svg" xmlns:xlink="http://www.w3.org/1999/xlink" fill="#ffffff">
    <path d="M9.97046875,11.1650391 L10.5214453,7.5728125 L7.07484375,7.5728125 L7.07484375,5.24167969 C7.07484375,4.25890625 7.55628906,3.30097656 9.10003906,3.30097656 L10.6670703,3.30097656 L10.6670703,0.242734375 C10.6670703,0.242734375 9.24492188,-6.24500451e-16 7.8853125,-6.24500451e-16 C5.04664063,-6.24500451e-16 3.19136719,1.72039062 3.19136719,4.83496094 L3.19136719,7.5728125 L0.036015625,7.5728125 L0.036015625,11.1650391 L3.19136719,11.1650391 L3.19136719,19.8490234 C3.8240625,19.9482813 4.47253906,20 5.133125,20 C5.79371094,20 6.44214844,19.9482813 7.07484375,19.8490234 L7.07484375,11.1650391 L9.97046875,11.1650391 L9.97046875,11.1650391 Z" id="Path"></path>
</svg>