<?xml version="1.0" encoding="UTF-8"?>
<svg width="20px" height="19px" viewBox="0 0 20 19" version="1.1" xmlns="http://www.w3.org/2000/svg" xmlns:xlink="http://www.w3.org/1999/xlink"  fill="#ffffff">
    <path d="M2.60869565,0.00424591304 C1.1,0.00424591304 0.00424591304,0.908355957 0.00424591304,2.15183426 C0.00424591304,3.39966043 1.12608696,4.34358 2.60869565,4.34358 C4.1173913,4.34358 5.21314522,3.42201087 5.21314522,2.1263587 C5.14358,0.878532609 4.06956522,0.00424591304 2.60869565,0.00424591304 Z M0.434782609,5.2173913 C0.195652174,5.2173913 0,5.41304348 0,5.65217391 L0,18.2608696 C0,18.5 0.195652174,18.6956522 0.434782609,18.6956522 L4.7826087,18.6956522 C5.02173913,18.6956522 5.2173913,18.5 5.2173913,18.2608696 L5.2173913,5.65217391 C5.2173913,5.41304348 5.02173913,5.2173913 4.7826087,5.2173913 L0.434782609,5.2173913 Z M6.95652174,5.2173913 C6.7173913,5.2173913 6.52173913,5.41304348 6.52173913,5.65217391 L6.52173913,18.2608696 C6.52173913,18.5 6.7173913,18.6956522 6.95652174,18.6956522 L10.8695652,18.6956522 C11.1095652,18.6956522 11.3043478,18.5008696 11.3043478,18.2608696 L11.3043478,11.7391304 L11.3043478,11.6304348 L11.3043478,11.5217391 C11.3043478,10.4913043 12.0959239,9.65197 13.1046196,9.57370913 C13.1567935,9.56501348 13.2086957,9.56521739 13.2608696,9.56521739 C13.3130435,9.56521739 13.3649457,9.56501348 13.4171196,9.57370913 C14.4258152,9.65197 15.2173913,10.4913043 15.2173913,11.5217391 L15.2173913,18.2608696 C15.2173913,18.5008696 15.4121739,18.6956522 15.6521739,18.6956522 L19.5652174,18.6956522 C19.8043478,18.6956522 20,18.5 20,18.2608696 L20,10.8695652 C20,8.05652174 18.490897,5.2173913 15.1256791,5.2173913 C13.5952443,5.2173913 12.4391304,5.80879739 11.7391304,6.30010174 L11.7391304,5.65217391 C11.7391304,5.41304348 11.5434783,5.2173913 11.3043478,5.2173913 L6.95652174,5.2173913 Z" id="Shape"></path>
</svg>