<?xml version="1.0" encoding="UTF-8"?>
<svg width="20px" height="17px" viewBox="0 0 20 17" version="1.1" xmlns="http://www.w3.org/2000/svg" xmlns:xlink="http://www.w3.org/1999/xlink" fill="#ffffff">
    <path d="M6.28960938,16.2895703 C13.8367969,16.2895703 17.9648047,10.0367969 17.9648047,4.614375 C17.9648047,4.43679688 17.9648047,4.26 17.9528125,4.08398438 C18.7558594,3.50308594 19.4491016,2.78390625 20,1.96 C19.2511328,2.29183594 18.4566406,2.50941406 17.6432031,2.60558594 C18.4996094,2.09292969 19.1409766,1.28597656 19.4471875,0.335976562 C18.6417578,0.81390625 17.7604688,1.15078125 16.8416016,1.33199219 C16.0657422,0.506953125 14.9821484,0.0385546875 13.8496875,0.0385546875 C11.5964844,0.0385546875 9.74246094,1.89261719 9.74246094,4.14574219 C9.74246094,4.45832031 9.77816406,4.76992188 9.84878906,5.074375 C6.55121094,4.90910156 3.47457031,3.34933594 1.39199219,0.7871875 C0.309023437,2.65148438 0.869375,5.0675 2.66238281,6.26476563 C2.00945312,6.24542969 1.37054687,6.06925781 0.8,5.75117188 L0.8,5.80316406 C0.800546875,7.74902344 2.18464844,9.4403125 4.09199219,9.82558594 C3.48792969,9.9903125 2.85398438,10.014375 2.23921875,9.89597656 C2.77542969,11.5633594 4.32167969,12.7126953 6.0728125,12.7455859 C4.62007813,13.8872656 2.82449219,14.5074219 0.976796875,14.5055859 C0.6503125,14.5049609 0.324140625,14.4851953 0,14.4463672 C1.87632812,15.6504688 4.06015625,16.2893359 6.28960938,16.2863672" id="Path"></path>
</svg>